<svg
  width="350"
  height="330"
  viewBox="0 0 350 330"
  fill="none"
  xmlns="http://www.w3.org/2000/svg"
  style="background-color: #000"
>
  <path d="M263.47 206.6C263.795 206.36 264.184 206.224 264.588 206.21C264.991 206.195 265.39 206.304 265.731 206.52C266.072 206.736 266.339 207.051 266.498 207.422C266.656 207.793 266.699 208.204 266.62 208.6C265.62 215.6 264.55 228.93 271.47 228C276.41 227.34 254.82 196.47 290.79 189.84C291.16 189.763 291.545 189.793 291.899 189.926C292.252 190.059 292.561 190.29 292.79 190.592C293.018 190.893 293.156 191.253 293.188 191.63C293.22 192.006 293.144 192.384 292.97 192.72C291.65 195.46 290.14 199.34 290.24 202.62C290.248 203.053 290.396 203.473 290.663 203.814C290.93 204.156 291.301 204.402 291.719 204.514C292.138 204.627 292.582 204.601 292.984 204.44C293.386 204.278 293.725 203.991 293.95 203.62C298.05 197.47 309.05 185.76 330.54 192.92C330.883 193.031 331.189 193.233 331.427 193.504C331.665 193.775 331.825 194.105 331.89 194.46C332.82 199.26 336.02 217.7 331.6 223.18C326.51 229.49 316.6 227.32 315.42 233.43C314.12 240.34 322.93 238.25 328.84 233.21C329.138 232.947 329.507 232.778 329.9 232.726C330.294 232.673 330.695 232.739 331.051 232.915C331.407 233.091 331.703 233.369 331.9 233.713C332.098 234.058 332.188 234.454 332.16 234.85C331.91 240.3 329.98 248.85 321.04 253.54C307.26 260.75 297.56 246.54 295.85 249.66C293.26 254.32 303.79 258.13 309.63 259.84C310.001 259.938 310.336 260.141 310.595 260.424C310.855 260.708 311.026 261.06 311.091 261.439C311.155 261.817 311.109 262.206 310.958 262.559C310.807 262.913 310.558 263.215 310.24 263.43C299.72 271.17 281.11 273.71 273.24 258.02C264.94 241.43 260.31 245.53 255.05 237.64C249.34 229.07 250.72 215.1 263.43 206.59L263.47 206.6ZM292.83 239.06C293.33 241.79 298.03 242.57 301.18 242C304.33 241.43 309.65 238.17 309.18 235.44C308.71 232.71 302.56 231.54 299.4 232.11C296.24 232.68 292.35 236.33 292.85 239.06" fill="#E81A5A"/>
  <path d="M263 327.66C263 327.66 258.09 257.39 268.54 246.94" stroke="#E81A5A" stroke-width="2" stroke-miterlimit="10"/>
  <path d="M251.89 328.88C252.825 328.877 253.722 328.505 254.383 327.843C255.045 327.182 255.417 326.285 255.42 325.35V320.28C255.42 319.344 255.048 318.446 254.386 317.784C253.724 317.122 252.826 316.75 251.89 316.75C250.954 316.75 250.056 317.122 249.394 317.784C248.732 318.446 248.36 319.344 248.36 320.28V325.35C248.365 326.285 248.739 327.179 249.4 327.84C250.061 328.501 250.955 328.875 251.89 328.88" fill="#A67EE5"/>
  <path d="M251.89 328.88C252.825 328.877 253.722 328.505 254.383 327.843C255.045 327.182 255.417 326.285 255.42 325.35V320.28C255.42 319.344 255.048 318.446 254.386 317.784C253.724 317.122 252.826 316.75 251.89 316.75C250.954 316.75 250.056 317.122 249.394 317.784C248.732 318.446 248.36 319.344 248.36 320.28V325.35C248.365 326.285 248.739 327.179 249.4 327.84C250.061 328.501 250.955 328.875 251.89 328.88V328.88Z" stroke="white" stroke-width="2" stroke-miterlimit="10"/>
  <path d="M176.35 328.88C177.285 328.877 178.182 328.505 178.843 327.843C179.505 327.182 179.877 326.285 179.88 325.35V320.28C179.88 319.344 179.508 318.446 178.846 317.784C178.184 317.122 177.286 316.75 176.35 316.75C175.414 316.75 174.516 317.122 173.854 317.784C173.192 318.446 172.82 319.344 172.82 320.28V325.35C172.823 326.285 173.195 327.182 173.857 327.843C174.518 328.505 175.415 328.877 176.35 328.88" fill="#A67EE5"/>
  <path d="M176.35 328.88C177.285 328.877 178.182 328.505 178.843 327.843C179.505 327.182 179.877 326.285 179.88 325.35V320.28C179.88 319.344 179.508 318.446 178.846 317.784C178.184 317.122 177.286 316.75 176.35 316.75C175.414 316.75 174.516 317.122 173.854 317.784C173.192 318.446 172.82 319.344 172.82 320.28V325.35C172.823 326.285 173.195 327.182 173.857 327.843C174.518 328.505 175.415 328.877 176.35 328.88V328.88Z" stroke="white" stroke-width="2" stroke-miterlimit="10"/>
  <path d="M170.92 320.29H245.42C248.428 320.282 251.31 319.084 253.437 316.957C255.564 314.83 256.762 311.948 256.77 308.94V242.86C256.762 239.852 255.564 236.97 253.437 234.843C251.31 232.716 248.428 231.518 245.42 231.51H170.92C167.912 231.518 165.03 232.716 162.903 234.843C160.776 236.97 159.578 239.852 159.57 242.86V308.94C159.578 311.948 160.776 314.83 162.903 316.957C165.03 319.084 167.912 320.282 170.92 320.29" fill="#A67EE5"/>
  <path d="M245.42 231.51H170.92C164.652 231.51 159.57 236.592 159.57 242.86V308.94C159.57 315.208 164.652 320.29 170.92 320.29H245.42C251.688 320.29 256.77 315.208 256.77 308.94V242.86C256.77 236.592 251.688 231.51 245.42 231.51Z" stroke="white" stroke-width="2" stroke-miterlimit="10"/>
  <path d="M199.26 219.15H231.66C232.741 219.153 233.778 219.583 234.542 220.348C235.307 221.112 235.737 222.149 235.74 223.23V239.23C235.74 239.546 235.615 239.848 235.391 240.071C235.168 240.295 234.866 240.42 234.55 240.42H231.85C231.534 240.42 231.232 240.295 231.009 240.071C230.785 239.848 230.66 239.546 230.66 239.23V224.86C230.66 224.523 230.526 224.2 230.288 223.962C230.05 223.724 229.727 223.59 229.39 223.59H201.53C201.193 223.59 200.87 223.724 200.632 223.962C200.394 224.2 200.26 224.523 200.26 224.86V239.24C200.26 239.556 200.135 239.858 199.911 240.081C199.688 240.305 199.386 240.43 199.07 240.43H196.37C196.054 240.43 195.752 240.305 195.529 240.081C195.305 239.858 195.18 239.556 195.18 239.24V223.24C195.185 222.158 195.618 221.122 196.384 220.357C197.151 219.593 198.188 219.163 199.27 219.16" fill="#A67EE5"/>
  <path d="M199.26 219.15H231.66C232.741 219.153 233.778 219.583 234.542 220.348C235.307 221.112 235.737 222.149 235.74 223.23V239.23C235.74 239.546 235.615 239.848 235.391 240.071C235.168 240.295 234.866 240.42 234.55 240.42H231.85C231.534 240.42 231.232 240.295 231.009 240.071C230.785 239.848 230.66 239.546 230.66 239.23V224.86C230.66 224.523 230.526 224.2 230.288 223.962C230.05 223.724 229.727 223.59 229.39 223.59H201.53C201.193 223.59 200.87 223.724 200.632 223.962C200.394 224.2 200.26 224.523 200.26 224.86V239.24C200.26 239.556 200.135 239.858 199.911 240.081C199.688 240.305 199.386 240.43 199.07 240.43H196.37C196.054 240.43 195.752 240.305 195.529 240.081C195.305 239.858 195.18 239.556 195.18 239.24V223.24C195.183 222.158 195.613 221.121 196.377 220.354C197.142 219.588 198.178 219.155 199.26 219.15Z" stroke="white" stroke-width="2" stroke-miterlimit="10"/>
  <path d="M185.34 320.29H259.84C262.848 320.282 265.73 319.084 267.857 316.957C269.984 314.83 271.182 311.948 271.19 308.94V242.86C271.182 239.852 269.984 236.97 267.857 234.843C265.73 232.716 262.848 231.518 259.84 231.51H185.34C182.334 231.521 179.454 232.72 177.33 234.847C175.205 236.973 174.008 239.854 174 242.86V308.94C174.011 311.947 175.21 314.828 177.336 316.954C179.462 319.08 182.343 320.279 185.35 320.29" fill="#A67EE5"/>
  <path d="M185.34 320.29H259.84C262.848 320.282 265.73 319.084 267.857 316.957C269.984 314.83 271.182 311.948 271.19 308.94V242.86C271.182 239.852 269.984 236.97 267.857 234.843C265.73 232.716 262.848 231.518 259.84 231.51H185.34C182.334 231.521 179.454 232.72 177.33 234.847C175.205 236.973 174.008 239.854 174 242.86V308.94C174.011 311.945 175.208 314.825 177.332 316.951C179.457 319.076 182.335 320.277 185.34 320.29V320.29Z" stroke="white" stroke-width="2" stroke-miterlimit="10"/>
  <path d="M254.22 252.43H190.97" stroke="white" stroke-width="2" stroke-miterlimit="10" stroke-linecap="round"/>
  <path d="M254.22 275.9H190.97" stroke="white" stroke-width="2" stroke-miterlimit="10" stroke-linecap="round"/>
  <path d="M254.22 299.38H190.97" stroke="white" stroke-width="2" stroke-miterlimit="10" stroke-linecap="round"/>
  <path d="M168.12 253.68H168.79V298.14H168.12C167.189 298.137 166.297 297.767 165.637 297.11C164.978 296.452 164.605 295.561 164.6 294.63V257.2C164.6 256.738 164.691 256.28 164.868 255.853C165.045 255.426 165.304 255.038 165.631 254.711C165.958 254.384 166.346 254.125 166.773 253.948C167.2 253.771 167.658 253.68 168.12 253.68" fill="#A67EE5"/>
  <path d="M168.12 253.68H168.79V298.14H168.12C167.189 298.137 166.297 297.767 165.637 297.11C164.978 296.452 164.605 295.561 164.6 294.63V257.2C164.6 256.266 164.971 255.371 165.631 254.711C166.291 254.051 167.186 253.68 168.12 253.68V253.68Z" stroke="white" stroke-width="2" stroke-miterlimit="10"/>
  <path d="M215.46 218.86L159.87 139.03" stroke="white" stroke-width="2" stroke-linecap="round" stroke-linejoin="round"/>
  <path d="M215.46 218.86L196.93 139.03" stroke="white" stroke-width="2" stroke-linecap="round" stroke-linejoin="round"/>
  <path d="M233.99 139.03L215.46 218.86" stroke="white" stroke-width="2" stroke-linecap="round" stroke-linejoin="round"/>
  <path d="M271.04 139.03L215.46 218.86" stroke="white" stroke-width="2" stroke-linecap="round" stroke-linejoin="round"/>
  <path d="M215.46 83.44C230.19 83.4506 244.314 89.3083 254.728 99.7261C265.142 110.144 270.995 124.27 271 139C271 132.24 262.7 126.75 252.47 126.75C242.24 126.75 234.16 132.1 233.95 138.75C233.95 138.83 233.95 138.92 233.95 139.01C233.95 132.25 225.65 126.76 215.42 126.76C205.19 126.76 196.88 132.25 196.88 139.01C196.88 138.92 196.88 138.84 196.88 138.75C196.66 132.11 188.46 126.75 178.36 126.75C168.26 126.75 159.84 132.24 159.84 139C159.839 131.699 161.276 124.47 164.069 117.725C166.862 110.98 170.957 104.851 176.119 99.689C181.281 94.5267 187.41 90.432 194.155 87.6389C200.9 84.8457 208.129 83.4087 215.43 83.41L215.46 83.44ZM215.43 81.75C200.258 81.7765 185.716 87.8179 174.991 98.5498C164.267 109.282 158.236 123.828 158.22 139C158.22 139.218 158.263 139.434 158.346 139.635C158.43 139.837 158.552 140.02 158.706 140.174C158.86 140.328 159.043 140.45 159.245 140.534C159.446 140.617 159.662 140.66 159.88 140.66C160.098 140.66 160.314 140.617 160.515 140.534C160.717 140.45 160.9 140.328 161.054 140.174C161.208 140.02 161.33 139.837 161.414 139.635C161.497 139.434 161.54 139.218 161.54 139C161.54 133.16 169.11 128.41 178.41 128.41C187.52 128.41 195.09 133.07 195.27 138.79V139C195.27 139.44 195.445 139.862 195.756 140.174C196.067 140.485 196.49 140.66 196.93 140.66C197.37 140.66 197.792 140.485 198.104 140.174C198.415 139.862 198.59 139.44 198.59 139C198.59 133.16 206.16 128.41 215.46 128.41C224.76 128.41 232.33 133.16 232.33 139C232.33 139.44 232.505 139.862 232.816 140.174C233.127 140.485 233.55 140.66 233.99 140.66C234.43 140.66 234.852 140.485 235.164 140.174C235.475 139.862 235.65 139.44 235.65 139V138.79C235.83 133.06 243.39 128.4 252.51 128.4C261.81 128.4 269.38 133.15 269.38 138.99C269.38 139.43 269.555 139.852 269.866 140.164C270.177 140.475 270.6 140.65 271.04 140.65C271.48 140.65 271.902 140.475 272.214 140.164C272.525 139.852 272.7 139.43 272.7 138.99C272.687 123.814 266.654 109.263 255.924 98.5298C245.195 87.7968 230.646 81.7585 215.47 81.74" fill="white"/>
  <path d="M215.46 83.44C225.38 83.44 233.46 104.34 234 138.77C234.21 132.12 242.41 126.77 252.52 126.77C262.63 126.77 271 132.27 271 139C271 124.257 265.143 110.117 254.718 99.6919C244.293 89.2668 230.153 83.41 215.41 83.41" fill="#E81A5A"/>
  <path d="M215.45 83.44C200.713 83.44 186.579 89.293 176.156 99.7119C165.733 110.131 159.875 124.263 159.87 139C159.87 132.24 168.17 126.75 178.39 126.75C188.61 126.75 196.69 132.1 196.91 138.75C197.43 104.32 205.52 83.43 215.44 83.43" fill="#FE6183"/>
  <path d="M215.46 83.44C205.53 83.44 197.46 104.34 196.92 138.76C196.92 138.85 196.92 138.93 196.92 139.02C196.92 132.26 205.22 126.77 215.45 126.77C225.68 126.77 234 132.27 234 139C234 138.91 234 138.83 234 138.74C233.49 104.31 225.4 83.41 215.48 83.41" fill="#F7396B"/>
  <path d="M322.92 283.19C323.202 283.466 323.403 283.815 323.5 284.198C323.597 284.581 323.586 284.983 323.47 285.36C322.41 288.79 318.89 298.21 311.37 301.7C306.23 304.08 303.04 299 300.45 302.47C297.86 305.94 302.55 307.47 307.37 306.78C307.786 306.712 308.214 306.767 308.599 306.939C308.984 307.11 309.311 307.391 309.538 307.746C309.766 308.101 309.885 308.516 309.88 308.937C309.875 309.359 309.746 309.77 309.51 310.12C308.252 312.109 306.524 313.758 304.479 314.921C302.433 316.084 300.132 316.726 297.78 316.79C286.94 317.06 285.23 305.21 283.21 306.6C280.49 308.49 284.48 313.15 287.6 316.17C287.899 316.457 288.109 316.824 288.206 317.227C288.302 317.63 288.28 318.052 288.143 318.443C288.006 318.834 287.76 319.178 287.433 319.432C287.106 319.687 286.713 319.843 286.3 319.88C277.54 320.72 266.58 316.37 266.5 304.88C266.42 291.94 262.25 293.08 261.39 286.53C260.48 279.65 265.27 271.65 275.13 269.84C275.527 269.768 275.935 269.808 276.31 269.956C276.685 270.104 277.011 270.353 277.252 270.677C277.492 271.001 277.637 271.385 277.67 271.787C277.704 272.188 277.624 272.591 277.44 272.95C275.03 277.68 271.44 285.55 274.62 285.51C278.08 285.51 273.04 262.93 303.05 270.25C303.412 270.339 303.745 270.521 304.016 270.777C304.287 271.033 304.487 271.355 304.597 271.711C304.707 272.068 304.722 272.447 304.642 272.811C304.562 273.175 304.389 273.512 304.14 273.79L304.04 273.9C303.713 274.263 303.519 274.725 303.489 275.212C303.459 275.7 303.595 276.183 303.874 276.583C304.154 276.983 304.56 277.276 305.028 277.416C305.496 277.555 305.997 277.532 306.45 277.35C310.11 275.83 315.61 276.08 322.92 283.19" fill="#FE6183"/>
  <path d="M245.13 327.67C245.13 327.67 248.61 297.56 266.83 297.56" stroke="#FE6183" stroke-width="2" stroke-miterlimit="10"/>
  <path d="M147.13 328.88H283.79" stroke="white" stroke-width="2" stroke-miterlimit="10" stroke-linecap="round"/>
</svg>
