<svg
  width="350"
  height="330"
  viewBox="0 0 350 330"
  style="background-color: #000"
  fill="none"
  xmlns="http://www.w3.org/2000/svg"
>
  <g id="plant">
    <path
      d="M263.47 206.82C263.795 206.58 264.184 206.444 264.588 206.43C264.991 206.415 265.39 206.524 265.731 206.74C266.072 206.956 266.339 207.271 266.498 207.642C266.656 208.013 266.699 208.424 266.62 208.82C265.62 215.82 264.55 229.15 271.47 228.22C276.41 227.56 254.82 196.69 290.79 190.06C291.162 189.982 291.548 190.011 291.903 190.145C292.259 190.278 292.569 190.51 292.797 190.813C293.026 191.116 293.164 191.478 293.194 191.856C293.225 192.235 293.147 192.614 292.97 192.95C291.65 195.69 290.14 199.56 290.24 202.85C290.248 203.283 290.396 203.702 290.663 204.044C290.93 204.386 291.301 204.632 291.719 204.744C292.138 204.857 292.582 204.831 292.984 204.67C293.386 204.508 293.725 204.221 293.95 203.85C298.05 197.7 309.05 185.99 330.54 193.15C330.883 193.261 331.189 193.463 331.427 193.734C331.665 194.005 331.825 194.335 331.89 194.69C332.82 199.49 336.02 217.93 331.6 223.41C326.51 229.72 316.6 227.55 315.42 233.66C314.12 240.57 322.93 238.48 328.84 233.44C329.138 233.177 329.507 233.008 329.9 232.956C330.294 232.903 330.695 232.969 331.051 233.145C331.407 233.321 331.703 233.599 331.9 233.943C332.098 234.288 332.188 234.684 332.16 235.08C331.91 240.53 329.98 249.08 321.04 253.77C307.26 260.98 297.56 246.77 295.85 249.89C293.26 254.55 303.79 258.36 309.63 260.07C310.001 260.168 310.336 260.371 310.595 260.654C310.855 260.938 311.026 261.29 311.091 261.669C311.155 262.047 311.109 262.436 310.958 262.789C310.807 263.143 310.558 263.445 310.24 263.66C299.72 271.4 281.11 273.94 273.24 258.25C264.94 241.66 260.31 245.76 255.05 237.87C249.34 229.3 250.72 215.33 263.43 206.82H263.47ZM292.83 239.29C293.33 242.02 298.03 242.8 301.18 242.23C304.33 241.66 309.65 238.4 309.18 235.67C308.71 232.94 302.56 231.77 299.4 232.34C296.24 232.91 292.35 236.56 292.85 239.29"
      fill="#E81A5A"
      >
      <animate
        dur="2"
        attributeName="d"
        values="M 263.47 206.82 C 263.795 206.58 264.184 206.444 264.588 206.43 C 264.991 206.415 265.39 206.524 265.731 206.74 C 266.072 206.956 266.339 207.271 266.498 207.642 C 266.656 208.013 266.699 208.424 266.62 208.82 C 265.62 215.82 264.55 229.15 271.47 228.22 C 276.41 227.56 254.82 196.69 290.79 190.06 C 291.162 189.982 291.548 190.011 291.903 190.145 C 292.259 190.278 292.569 190.51 292.797 190.813 C 293.026 191.116 293.164 191.478 293.194 191.856 C 293.225 192.235 293.147 192.614 292.97 192.95 C 291.65 195.69 290.14 199.56 290.24 202.85 C 290.248 203.283 290.396 203.702 290.663 204.044 C 290.93 204.386 291.301 204.632 291.719 204.744 C 292.138 204.857 292.582 204.831 292.984 204.67 C 293.386 204.508 293.725 204.221 293.95 203.85 C 298.05 197.7 309.05 185.99 330.54 193.15 C 330.883 193.261 331.189 193.463 331.427 193.734 C 331.665 194.005 331.825 194.335 331.89 194.69 C 332.82 199.49 336.02 217.93 331.6 223.41 C 326.51 229.72 316.6 227.55 315.42 233.66 C 314.12 240.57 322.93 238.48 328.84 233.44 C 329.138 233.177 329.507 233.008 329.9 232.956 C 330.294 232.903 330.695 232.969 331.051 233.145 C 331.407 233.321 331.703 233.599 331.9 233.943 C 332.098 234.288 332.188 234.684 332.16 235.08 C 331.91 240.53 329.98 249.08 321.04 253.77 C 307.26 260.98 297.56 246.77 295.85 249.89 C 293.26 254.55 303.79 258.36 309.63 260.07 C 310.001 260.168 310.336 260.371 310.595 260.654 C 310.855 260.938 311.026 261.29 311.091 261.669 C 311.155 262.047 311.109 262.436 310.958 262.789 C 310.807 263.143 310.558 263.445 310.24 263.66 C 299.72 271.4 281.11 273.94 273.24 258.25 C 264.94 241.66 260.31 245.76 255.05 237.87 C 249.34 229.3 250.72 215.33 263.43 206.82 L 263.47 206.82 Z M 292.83 239.29 C 293.33 242.02 298.03 242.8 301.18 242.23 C 304.33 241.66 309.65 238.4 309.18 235.67 C 308.71 232.94 302.56 231.77 299.4 232.34 C 296.24 232.91 292.35 236.56 292.85 239.29; M 258.745 207.932 C 259.035 207.651 259.403 207.465 259.801 207.397 C 260.2 207.33 260.609 207.385 260.975 207.554 C 261.342 207.724 261.648 208.001 261.854 208.348 C 262.061 208.695 262.157 209.096 262.131 209.499 C 262.062 216.57 262.757 229.925 269.494 228.091 C 274.304 226.786 248.836 199.029 283.619 187.719 C 283.977 187.592 284.363 187.571 284.733 187.656 C 285.103 187.741 285.441 187.93 285.708 188.201 C 285.975 188.471 286.159 188.812 286.239 189.183 C 286.319 189.554 286.292 189.94 286.161 190.296 C 285.213 193.186 284.226 197.222 284.758 200.47 C 284.823 200.898 285.026 201.294 285.335 201.598 C 285.645 201.901 286.045 202.096 286.474 202.153 C 286.904 202.209 287.341 202.125 287.718 201.912 C 288.096 201.699 288.394 201.369 288.568 200.972 C 291.822 194.336 301.184 181.279 323.429 185.545 C 323.784 185.611 324.114 185.77 324.386 186.008 C 324.657 186.245 324.859 186.551 324.971 186.894 C 326.525 191.53 332.126 209.388 328.466 215.402 C 324.252 222.328 314.142 221.482 313.778 227.694 C 313.399 234.715 321.857 231.483 327.052 225.708 C 327.312 225.408 327.656 225.192 328.039 225.088 C 328.423 224.985 328.828 224.997 329.204 225.125 C 329.581 225.252 329.91 225.489 330.152 225.804 C 330.393 226.12 330.535 226.5 330.559 226.897 C 331.029 232.332 330.242 241.062 321.998 246.889 C 309.288 255.851 297.8 243.043 296.516 246.361 C 294.563 251.321 305.503 253.711 311.517 254.637 C 311.898 254.685 312.257 254.842 312.551 255.089 C 312.845 255.336 313.062 255.662 313.176 256.029 C 313.289 256.396 313.295 256.788 313.192 257.158 C 313.089 257.527 312.882 257.86 312.595 258.115 C 303.186 267.173 285.073 272.143 275.204 257.626 C 264.791 242.274 260.742 246.948 254.488 239.82 C 247.699 232.077 247.227 218.047 258.705 207.937 L 258.745 207.932 Z M 292.126 236.251 C 292.981 238.891 297.743 239.045 300.791 238.065 C 303.838 237.085 308.682 233.153 307.857 230.509 C 307.031 227.864 300.781 227.515 297.723 228.496 C 294.666 229.477 291.291 233.608 292.146 236.248; M 263.47 206.82 C 263.795 206.58 264.184 206.444 264.588 206.43 C 264.991 206.415 265.39 206.524 265.731 206.74 C 266.072 206.956 266.339 207.271 266.498 207.642 C 266.656 208.013 266.699 208.424 266.62 208.82 C 265.62 215.82 264.55 229.15 271.47 228.22 C 276.41 227.56 254.82 196.69 290.79 190.06 C 291.162 189.982 291.548 190.011 291.903 190.145 C 292.259 190.278 292.569 190.51 292.797 190.813 C 293.026 191.116 293.164 191.478 293.194 191.856 C 293.225 192.235 293.147 192.614 292.97 192.95 C 291.65 195.69 290.14 199.56 290.24 202.85 C 290.248 203.283 290.396 203.702 290.663 204.044 C 290.93 204.386 291.301 204.632 291.719 204.744 C 292.138 204.857 292.582 204.831 292.984 204.67 C 293.386 204.508 293.725 204.221 293.95 203.85 C 298.05 197.7 309.05 185.99 330.54 193.15 C 330.883 193.261 331.189 193.463 331.427 193.734 C 331.665 194.005 331.825 194.335 331.89 194.69 C 332.82 199.49 336.02 217.93 331.6 223.41 C 326.51 229.72 316.6 227.55 315.42 233.66 C 314.12 240.57 322.93 238.48 328.84 233.44 C 329.138 233.177 329.507 233.008 329.9 232.956 C 330.294 232.903 330.695 232.969 331.051 233.145 C 331.407 233.321 331.703 233.599 331.9 233.943 C 332.098 234.288 332.188 234.684 332.16 235.08 C 331.91 240.53 329.98 249.08 321.04 253.77 C 307.26 260.98 297.56 246.77 295.85 249.89 C 293.26 254.55 303.79 258.36 309.63 260.07 C 310.001 260.168 310.336 260.371 310.595 260.654 C 310.855 260.938 311.026 261.29 311.091 261.669 C 311.155 262.047 311.109 262.436 310.958 262.789 C 310.807 263.143 310.558 263.445 310.24 263.66 C 299.72 271.4 281.11 273.94 273.24 258.25 C 264.94 241.66 260.31 245.76 255.05 237.87 C 249.34 229.3 250.72 215.33 263.43 206.82 L 263.47 206.82 Z M 292.83 239.29 C 293.33 242.02 298.03 242.8 301.18 242.23 C 304.33 241.66 309.65 238.4 309.18 235.67 C 308.71 232.94 302.56 231.77 299.4 232.34 C 296.24 232.91 292.35 236.56 292.85 239.29"
        repeatCount="indefinite"
      />
    </path>
    <path
      d="M263 327.88C263 327.88 258.09 257.61 268.54 247.16"
      stroke="#E81A5A"
      stroke-width="2"
      stroke-miterlimit="10"
    />
  </g>
  <g id="wind-1">
    <path
      d="M85.22 67.45H57.86C57.86 64.1613 56.5536 61.0073 54.2281 58.6819C51.9027 56.3564 48.7487 55.05 45.46 55.05C42.1713 55.05 39.0173 56.3564 36.6919 58.6819C34.3664 61.0073 33.06 64.1613 33.06 67.45H15.13"
      stroke="white"
      stroke-width="2"
      stroke-miterlimit="10"
      stroke-linecap="round"
    >
      <animateTransform
        type="translate"
        attributeName="transform"
        fill="freeze"
        dur="0.5"
        keyTimes="0; 1"
        keySplines="0 0 0.58 1"
        calcMode="spline"
        from="60"
        to="0"
      />
      <animate
        attributeName="opacity"
        fill="freeze"
        dur="0.5"
        from="0"
        to="1"
      />
    </path>
    <path d="M93.48 67.45H115.68" stroke="white" stroke-width="2" stroke-miterlimit="10" stroke-linecap="round">
      <animateTransform
        type="translate"
        attributeName="transform"
        fill="freeze"
        dur="0.5"
        keyTimes="0; 1"
        keySplines="0 0 0.58 1"
        calcMode="spline"
        from="60"
        to="0"
      />
      <animate
        attributeName="opacity"
        fill="freeze"
        dur="0.5"
        from="0"
        to="1"
      />
    </path>
    <path d="M65.43 77.72H105.21" stroke="white" stroke-width="2" stroke-miterlimit="10" stroke-linecap="round">
      <animateTransform
        type="translate"
        attributeName="transform"
        fill="freeze"
        dur="0.5"
        keyTimes="0; 1"
        keySplines="0 0 0.58 1"
        calcMode="spline"
        from="60"
        to="0"
      />
      <animate
        attributeName="opacity"
        fill="freeze"
        dur="0.5"
        from="0"
        to="1"
      />
    </path>
  </g>
  <g id="wind-2">
    <path d="M272.13 145.27H311.9" stroke="white" stroke-width="2" stroke-miterlimit="10" stroke-linecap="round">
      <animateTransform
        type="translate"
        attributeName="transform"
        fill="freeze"
        dur="0.5"
        keyTimes="0; 1"
        keySplines="0 0 0.58 1"
        calcMode="spline"
        from="60"
        to="0"
      />
      <animate
        attributeName="opacity"
        fill="freeze"
        dur="0.5"
        from="0"
        to="1"
      />
    </path>
    <path d="M300.17 135H322.37" stroke="white" stroke-width="2" stroke-miterlimit="10" stroke-linecap="round">
      <animateTransform
        type="translate"
        attributeName="transform"
        fill="freeze"
        dur="0.5"
        keyTimes="0; 1"
        keySplines="0 0 0.58 1"
        calcMode="spline"
        from="60"
        to="0"
      />
      <animate
        attributeName="opacity"
        fill="freeze"
        dur="0.5"
        from="0"
        to="1"
      />
    </path>
  </g>
  <g id="cloud">
    <path
      d="M235.77 119H216.32C216.198 110.896 213.305 103.078 208.124 96.8464C202.942 90.6144 195.784 86.3436 187.838 84.744C179.893 83.1444 171.64 84.3125 164.45 88.0539C157.261 91.7954 151.569 97.8849 148.32 105.31C144.378 103.122 139.939 101.982 135.43 102C130.068 102.018 124.835 103.649 120.412 106.681C115.989 109.713 112.581 114.005 110.63 119H95.48C92.6952 119 90.0245 120.106 88.0554 122.075C86.0863 124.045 84.98 126.715 84.98 129.5C84.98 132.285 86.0863 134.955 88.0554 136.925C90.0245 138.894 92.6952 140 95.48 140H235.78C238.565 140 241.235 138.894 243.205 136.925C245.174 134.955 246.28 132.285 246.28 129.5C246.28 126.715 245.174 124.045 243.205 122.075C241.235 120.106 238.565 119 235.78 119"
      fill="white"
    >
      <animateTransform
        type="translate"
        attributeName="transform"
        fill="freeze"
        dur="0.5"
        keyTimes="0; 1"
        keySplines="0 0 0.58 1"
        calcMode="spline"
        from="60"
        to="0"
      />
      <animate
        attributeName="opacity"
        fill="freeze"
        dur="0.5"
        from="0"
        to="1"
      />
    </path>
  </g>
  <path
    d="M322.92 283.4C323.203 283.676 323.404 284.024 323.501 284.407C323.598 284.79 323.588 285.193 323.47 285.57C322.41 289 318.89 298.42 311.37 301.91C306.24 304.29 303.04 299.21 300.45 302.68C297.86 306.15 302.55 307.68 307.37 306.99C307.786 306.922 308.213 306.977 308.599 307.149C308.984 307.32 309.311 307.601 309.538 307.956C309.766 308.311 309.885 308.726 309.88 309.147C309.874 309.569 309.746 309.98 309.51 310.33C308.252 312.319 306.524 313.968 304.479 315.131C302.433 316.294 300.132 316.936 297.78 317C286.94 317.27 285.23 305.42 283.21 306.81C280.49 308.7 284.48 313.36 287.6 316.38C287.899 316.667 288.109 317.034 288.206 317.437C288.302 317.84 288.28 318.262 288.143 318.653C288.006 319.044 287.76 319.388 287.433 319.642C287.106 319.897 286.713 320.053 286.3 320.09C277.54 320.93 266.58 316.58 266.5 305.09C266.42 292.15 262.25 293.29 261.39 286.74C260.48 279.86 265.27 271.86 275.13 270.05C275.527 269.978 275.935 270.018 276.31 270.166C276.685 270.314 277.011 270.563 277.252 270.887C277.492 271.211 277.637 271.595 277.67 271.997C277.704 272.398 277.624 272.801 277.44 273.16C275.03 277.89 271.44 285.76 274.62 285.72C278.08 285.72 273.04 263.14 303.05 270.46C303.412 270.549 303.745 270.731 304.016 270.987C304.287 271.243 304.487 271.565 304.597 271.921C304.707 272.278 304.722 272.657 304.642 273.021C304.562 273.385 304.389 273.722 304.14 274L304.04 274.11C303.713 274.473 303.519 274.935 303.489 275.422C303.459 275.91 303.595 276.392 303.874 276.793C304.154 277.193 304.56 277.486 305.028 277.626C305.496 277.765 305.997 277.742 306.45 277.56C310.11 276.04 315.61 276.29 322.92 283.4"
    fill="#FE6183"
  />
  <path
    d="M245.13 327.88C245.13 327.88 248.61 297.77 266.83 297.77"
    stroke="#FE6183"
    stroke-width="2"
    stroke-miterlimit="10"
  />

  <path id="floor" d="M41.13 329H319.13" stroke="white" stroke-width="2">
    <animate
      attributeName="d"
      fill="freeze"
      dur="0.5"
      from="M14.13 329H319.13"
      to="M41.13 329H319.13"
    />
  </path>
</svg>
